<svg width="849" height="359" viewBox="0 0 849 359" fill="none" xmlns="http://www.w3.org/2000/svg">
<path d="M117.5 102.699C361.5 133.699 568.389 114.074 658.761 105.357C749.133 96.6399 823.6 182.255 830.647 244.26C795.51 188.744 770.367 118.493 655.944 129.996C541.52 141.499 285.5 165.199 49.5 144.199L117.5 102.699Z" fill="white"/>
<path d="M197.842 54.295C412.41 81.3024 598.142 68.4761 677.427 62.3458C756.713 56.2156 822.898 125.283 829.658 174.873C798.289 130.208 775.562 73.8658 675.18 81.9996C574.798 90.1333 350.178 106.705 142.727 87.7581L197.842 54.295Z" fill="white"/>
<path d="M148.26 247.389H179.34V307.029C171.36 313.049 162.12 317.669 151.62 320.889C141.12 324.109 130.55 325.719 119.91 325.719C104.65 325.719 90.93 322.499 78.75 316.059C66.57 309.479 56.98 300.449 49.98 288.969C43.12 277.349 39.69 264.259 39.69 249.699C39.69 235.139 43.12 222.119 49.98 210.639C56.98 199.019 66.64 189.989 78.96 183.549C91.28 176.969 105.14 173.679 120.54 173.679C133.42 173.679 145.11 175.849 155.61 180.189C166.11 184.529 174.93 190.829 182.07 199.089L160.23 219.249C149.73 208.189 137.06 202.659 122.22 202.659C112.84 202.659 104.51 204.619 97.23 208.539C89.95 212.459 84.28 217.989 80.22 225.129C76.16 232.269 74.13 240.459 74.13 249.699C74.13 258.799 76.16 266.919 80.22 274.059C84.28 281.199 89.88 286.799 97.02 290.859C104.3 294.779 112.56 296.739 121.8 296.739C131.6 296.739 140.42 294.639 148.26 290.439V247.389ZM301.332 275.139C301.332 275.499 301.152 278.019 300.792 282.699H227.532C228.852 288.699 231.972 293.439 236.892 296.919C241.812 300.399 247.932 302.139 255.252 302.139C260.292 302.139 264.732 301.419 268.572 299.979C272.532 298.419 276.192 296.019 279.552 292.779L294.492 308.979C285.372 319.419 272.052 324.639 254.532 324.639C243.612 324.639 233.952 322.539 225.552 318.339C217.152 314.019 210.672 308.079 206.112 300.519C201.552 292.959 199.272 284.379 199.272 274.779C199.272 265.299 201.492 256.779 205.932 249.219C210.492 241.539 216.672 235.599 224.472 231.399C232.392 227.079 241.212 224.919 250.932 224.919C260.412 224.919 268.992 226.959 276.672 231.039C284.352 235.119 290.352 240.999 294.672 248.679C299.112 256.239 301.332 265.059 301.332 275.139ZM251.112 246.159C244.752 246.159 239.412 247.959 235.092 251.559C230.772 255.159 228.132 260.079 227.172 266.319H274.872C273.912 260.199 271.272 255.339 266.952 251.739C262.632 248.019 257.352 246.159 251.112 246.159ZM382.486 318.519C379.726 320.559 376.306 322.119 372.226 323.199C368.266 324.159 364.066 324.639 359.626 324.639C348.106 324.639 339.166 321.699 332.806 315.819C326.566 309.939 323.446 301.299 323.446 289.899V250.119H308.506V228.519H323.446V204.939H351.526V228.519H375.646V250.119H351.526V289.539C351.526 293.619 352.546 296.799 354.586 299.079C356.746 301.239 359.746 302.319 363.586 302.319C368.026 302.319 371.806 301.119 374.926 298.719L382.486 318.519ZM458.6 318.519C455.84 320.559 452.42 322.119 448.34 323.199C444.38 324.159 440.18 324.639 435.74 324.639C424.22 324.639 415.28 321.699 408.92 315.819C402.68 309.939 399.56 301.299 399.56 289.899V250.119H384.62V228.519H399.56V204.939H427.64V228.519H451.76V250.119H427.64V289.539C427.64 293.619 428.66 296.799 430.7 299.079C432.86 301.239 435.86 302.319 439.7 302.319C444.14 302.319 447.92 301.119 451.04 298.719L458.6 318.519ZM566.234 275.139C566.234 275.499 566.054 278.019 565.694 282.699H492.434C493.754 288.699 496.874 293.439 501.794 296.919C506.714 300.399 512.834 302.139 520.154 302.139C525.194 302.139 529.634 301.419 533.474 299.979C537.434 298.419 541.094 296.019 544.454 292.779L559.394 308.979C550.274 319.419 536.954 324.639 519.434 324.639C508.514 324.639 498.854 322.539 490.454 318.339C482.054 314.019 475.574 308.079 471.014 300.519C466.454 292.959 464.174 284.379 464.174 274.779C464.174 265.299 466.394 256.779 470.834 249.219C475.394 241.539 481.574 235.599 489.374 231.399C497.294 227.079 506.114 224.919 515.834 224.919C525.314 224.919 533.894 226.959 541.574 231.039C549.254 235.119 555.254 240.999 559.574 248.679C564.014 256.239 566.234 265.059 566.234 275.139ZM516.014 246.159C509.654 246.159 504.314 247.959 499.994 251.559C495.674 255.159 493.034 260.079 492.074 266.319H539.774C538.814 260.199 536.174 255.339 531.854 251.739C527.534 248.019 522.254 246.159 516.014 246.159ZM611.749 239.139C615.109 234.459 619.609 230.919 625.249 228.519C631.009 226.119 637.609 224.919 645.049 224.919V250.839C641.929 250.599 639.829 250.479 638.749 250.479C630.709 250.479 624.409 252.759 619.849 257.319C615.289 261.759 613.009 268.479 613.009 277.479V323.199H584.929V226.359H611.749V239.139ZM694.677 324.639C686.637 324.639 678.777 323.679 671.097 321.759C663.417 319.719 657.297 317.199 652.737 314.199L662.097 294.039C666.417 296.799 671.637 299.079 677.757 300.879C683.877 302.559 689.877 303.399 695.757 303.399C707.637 303.399 713.577 300.459 713.577 294.579C713.577 291.819 711.957 289.839 708.717 288.639C705.477 287.439 700.497 286.419 693.777 285.579C685.857 284.379 679.317 282.999 674.157 281.439C668.997 279.879 664.497 277.119 660.657 273.159C656.937 269.199 655.077 263.559 655.077 256.239C655.077 250.119 656.817 244.719 660.297 240.039C663.897 235.239 669.057 231.519 675.777 228.879C682.617 226.239 690.657 224.919 699.897 224.919C706.737 224.919 713.517 225.699 720.237 227.259C727.077 228.699 732.717 230.739 737.157 233.379L727.797 253.359C719.277 248.559 709.977 246.159 699.897 246.159C693.897 246.159 689.397 246.999 686.397 248.679C683.397 250.359 681.897 252.519 681.897 255.159C681.897 258.159 683.517 260.259 686.757 261.459C689.997 262.659 695.157 263.799 702.237 264.879C710.157 266.199 716.637 267.639 721.677 269.199C726.717 270.639 731.097 273.339 734.817 277.299C738.537 281.259 740.397 286.779 740.397 293.859C740.397 299.859 738.597 305.199 734.997 309.879C731.397 314.559 726.117 318.219 719.157 320.859C712.317 323.379 704.157 324.639 694.677 324.639Z" fill="white"/>
<path d="M147.5 48.6987L181.5 52.6987L127 85.6987L94.0001 81.6987L147.5 48.6987Z" fill="white"/>
<path d="M68 96.6987L102 100.78L34 142.199L0 138.199L68 96.6987Z" fill="white"/>
</svg>
